<mxfile host="Electron" modified="2024-07-09T14:28:30.507Z" agent="Mozilla/5.0 (Windows NT 10.0; Win64; x64) AppleWebKit/537.36 (KHTML, like Gecko) draw.io/21.2.8 Chrome/112.0.5615.165 Electron/24.2.0 Safari/537.36" etag="0MaC-BZW7tNCId5V_lRy" version="21.2.8" type="device">
  <diagram name="Page-1" id="L96-RxTiCE_DFhC3mPRk">
    <mxGraphModel dx="2980" dy="1738" grid="1" gridSize="10" guides="1" tooltips="1" connect="1" arrows="1" fold="1" page="0" pageScale="1" pageWidth="850" pageHeight="1100" math="0" shadow="0">
      <root>
        <mxCell id="0" />
        <mxCell id="1" parent="0" />
        <mxCell id="CI7hVYK2IcQJahsfxzS0-12" value="&lt;span style=&quot;font-size: 16px;&quot;&gt;Customer&lt;/span&gt;" style="swimlane;whiteSpace=wrap;html=1;fillColor=#cdeb8b;strokeColor=#36393d;fontSize=16;" parent="1" vertex="1">
          <mxGeometry x="-90" y="-59" width="380" height="1469" as="geometry" />
        </mxCell>
        <mxCell id="CI7hVYK2IcQJahsfxzS0-28" value="&lt;font style=&quot;font-size: 16px;&quot;&gt;custmor has problem in his car&lt;/font&gt;" style="rounded=1;whiteSpace=wrap;html=1;strokeColor=#9673a6;fontFamily=Helvetica;fontSize=16;fontColor=default;startSize=23;fillColor=#FFFFFF;" parent="CI7hVYK2IcQJahsfxzS0-12" vertex="1">
          <mxGeometry x="80" y="50" width="160" height="60" as="geometry" />
        </mxCell>
        <mxCell id="CI7hVYK2IcQJahsfxzS0-30" value="&lt;font style=&quot;font-size: 16px;&quot;&gt;Making an order for the Service he needs&lt;/font&gt;" style="rounded=1;whiteSpace=wrap;html=1;strokeColor=#9673a6;fontFamily=Helvetica;fontSize=16;fontColor=default;startSize=23;fillColor=#FFFFFF;" parent="CI7hVYK2IcQJahsfxzS0-12" vertex="1">
          <mxGeometry x="80" y="140" width="160" height="60" as="geometry" />
        </mxCell>
        <mxCell id="CI7hVYK2IcQJahsfxzS0-29" style="edgeStyle=orthogonalEdgeStyle;rounded=0;orthogonalLoop=1;jettySize=auto;html=1;exitX=0.5;exitY=1;exitDx=0;exitDy=0;fontFamily=Helvetica;fontSize=16;fontColor=default;startSize=23;" parent="CI7hVYK2IcQJahsfxzS0-12" source="CI7hVYK2IcQJahsfxzS0-28" target="CI7hVYK2IcQJahsfxzS0-30" edge="1">
          <mxGeometry relative="1" as="geometry">
            <mxPoint x="160.20000000000005" y="210" as="targetPoint" />
          </mxGeometry>
        </mxCell>
        <mxCell id="CI7hVYK2IcQJahsfxzS0-124" style="edgeStyle=orthogonalEdgeStyle;rounded=0;orthogonalLoop=1;jettySize=auto;html=1;exitX=0.5;exitY=1;exitDx=0;exitDy=0;fontFamily=Helvetica;fontSize=16;fontColor=default;startSize=23;" parent="CI7hVYK2IcQJahsfxzS0-12" source="CI7hVYK2IcQJahsfxzS0-100" target="CI7hVYK2IcQJahsfxzS0-121" edge="1">
          <mxGeometry relative="1" as="geometry" />
        </mxCell>
        <mxCell id="CI7hVYK2IcQJahsfxzS0-100" value="he can see massege fazaa in the way" style="whiteSpace=wrap;html=1;rounded=1;strokeColor=#9673a6;fontFamily=Helvetica;fontSize=16;fontColor=default;startSize=23;fillColor=#FFFFFF;" parent="CI7hVYK2IcQJahsfxzS0-12" vertex="1">
          <mxGeometry x="270" y="944.5" width="120" height="60" as="geometry" />
        </mxCell>
        <mxCell id="CI7hVYK2IcQJahsfxzS0-121" value="make the pyment" style="rounded=1;whiteSpace=wrap;html=1;strokeColor=#9673a6;fontFamily=Helvetica;fontSize=16;fontColor=default;startSize=23;fillColor=#FFFFFF;" parent="CI7hVYK2IcQJahsfxzS0-12" vertex="1">
          <mxGeometry x="270" y="1049" width="120" height="60" as="geometry" />
        </mxCell>
        <mxCell id="nJ96h0wH1N9FHe8dLCJm-24" value="custmoer rating the fazza" style="rounded=1;whiteSpace=wrap;html=1;fontSize=16;" parent="CI7hVYK2IcQJahsfxzS0-12" vertex="1">
          <mxGeometry x="240" y="1329" width="120" height="51" as="geometry" />
        </mxCell>
        <mxCell id="CI7hVYK2IcQJahsfxzS0-17" value="&lt;span style=&quot;font-size: 16px;&quot;&gt;System&lt;/span&gt;" style="swimlane;whiteSpace=wrap;html=1;fillColor=#e1d5e7;strokeColor=#9673a6;startSize=23;fontSize=16;" parent="1" vertex="1">
          <mxGeometry x="290" y="-59" width="460" height="1469" as="geometry" />
        </mxCell>
        <mxCell id="CI7hVYK2IcQJahsfxzS0-38" style="edgeStyle=orthogonalEdgeStyle;rounded=0;orthogonalLoop=1;jettySize=auto;html=1;exitX=0.5;exitY=1;exitDx=0;exitDy=0;fontFamily=Helvetica;fontSize=16;fontColor=default;startSize=23;entryX=0.5;entryY=0;entryDx=0;entryDy=0;" parent="CI7hVYK2IcQJahsfxzS0-17" source="CI7hVYK2IcQJahsfxzS0-35" target="CI7hVYK2IcQJahsfxzS0-39" edge="1">
          <mxGeometry relative="1" as="geometry">
            <mxPoint x="129.79999999999995" y="420" as="targetPoint" />
          </mxGeometry>
        </mxCell>
        <mxCell id="CI7hVYK2IcQJahsfxzS0-35" value="&lt;font style=&quot;font-size: 16px;&quot;&gt;create new order in the system&lt;/font&gt;" style="rounded=1;whiteSpace=wrap;html=1;strokeColor=#9673a6;fontFamily=Helvetica;fontSize=16;fontColor=default;startSize=23;fillColor=#FFFFFF;" parent="CI7hVYK2IcQJahsfxzS0-17" vertex="1">
          <mxGeometry x="80" y="200" width="160" height="60" as="geometry" />
        </mxCell>
        <mxCell id="CI7hVYK2IcQJahsfxzS0-45" style="edgeStyle=orthogonalEdgeStyle;rounded=0;orthogonalLoop=1;jettySize=auto;html=1;exitX=0.5;exitY=1;exitDx=0;exitDy=0;entryX=0.5;entryY=0.061;entryDx=0;entryDy=0;entryPerimeter=0;fontFamily=Helvetica;fontSize=16;fontColor=default;startSize=23;" parent="CI7hVYK2IcQJahsfxzS0-17" source="CI7hVYK2IcQJahsfxzS0-39" target="CI7hVYK2IcQJahsfxzS0-44" edge="1">
          <mxGeometry relative="1" as="geometry" />
        </mxCell>
        <mxCell id="CI7hVYK2IcQJahsfxzS0-39" value="&lt;font style=&quot;font-size: 16px;&quot;&gt;looking for fazaa&amp;nbsp;Within &lt;br style=&quot;font-size: 16px;&quot;&gt;1 km&amp;nbsp;also dosen&#39;t have order now in the system&lt;/font&gt;" style="rounded=1;whiteSpace=wrap;html=1;strokeColor=#9673a6;fontFamily=Helvetica;fontSize=16;fontColor=default;startSize=23;fillColor=#FFFFFF;" parent="CI7hVYK2IcQJahsfxzS0-17" vertex="1">
          <mxGeometry x="60" y="290" width="200" height="60" as="geometry" />
        </mxCell>
        <mxCell id="CI7hVYK2IcQJahsfxzS0-46" style="edgeStyle=orthogonalEdgeStyle;rounded=0;orthogonalLoop=1;jettySize=auto;html=1;exitX=0;exitY=0.5;exitDx=0;exitDy=0;fontFamily=Helvetica;fontSize=16;fontColor=default;startSize=23;" parent="CI7hVYK2IcQJahsfxzS0-17" source="CI7hVYK2IcQJahsfxzS0-44" edge="1">
          <mxGeometry relative="1" as="geometry">
            <mxPoint x="83" y="509" as="targetPoint" />
            <Array as="points">
              <mxPoint x="83" y="435" />
              <mxPoint x="83" y="509" />
            </Array>
          </mxGeometry>
        </mxCell>
        <mxCell id="CI7hVYK2IcQJahsfxzS0-51" value="Yes" style="edgeLabel;html=1;align=center;verticalAlign=middle;resizable=0;points=[];fontSize=16;fontFamily=Helvetica;fontColor=default;" parent="CI7hVYK2IcQJahsfxzS0-46" vertex="1" connectable="0">
          <mxGeometry x="-0.1387" y="-2" relative="1" as="geometry">
            <mxPoint as="offset" />
          </mxGeometry>
        </mxCell>
        <mxCell id="CI7hVYK2IcQJahsfxzS0-48" style="edgeStyle=orthogonalEdgeStyle;rounded=0;orthogonalLoop=1;jettySize=auto;html=1;exitX=1;exitY=0.5;exitDx=0;exitDy=0;fontFamily=Helvetica;fontSize=16;fontColor=default;startSize=23;entryX=0.417;entryY=-0.047;entryDx=0;entryDy=0;entryPerimeter=0;" parent="CI7hVYK2IcQJahsfxzS0-17" source="CI7hVYK2IcQJahsfxzS0-44" target="CI7hVYK2IcQJahsfxzS0-55" edge="1">
          <mxGeometry relative="1" as="geometry">
            <mxPoint x="260" y="510" as="targetPoint" />
            <Array as="points">
              <mxPoint x="288" y="435" />
            </Array>
          </mxGeometry>
        </mxCell>
        <mxCell id="CI7hVYK2IcQJahsfxzS0-52" value="No" style="edgeLabel;html=1;align=center;verticalAlign=middle;resizable=0;points=[];fontSize=16;fontFamily=Helvetica;fontColor=default;" parent="CI7hVYK2IcQJahsfxzS0-48" vertex="1" connectable="0">
          <mxGeometry x="0.145" y="-2" relative="1" as="geometry">
            <mxPoint as="offset" />
          </mxGeometry>
        </mxCell>
        <mxCell id="CI7hVYK2IcQJahsfxzS0-44" value="&lt;font style=&quot;font-size: 16px;&quot;&gt;&lt;b style=&quot;font-size: 16px;&quot;&gt;their is fazaa in this area&lt;/b&gt;&lt;/font&gt;" style="rhombus;whiteSpace=wrap;html=1;rounded=1;strokeColor=#000000;fontFamily=Helvetica;fontSize=16;fontColor=default;startSize=23;fillColor=#FFFFFF;" parent="CI7hVYK2IcQJahsfxzS0-17" vertex="1">
          <mxGeometry x="110" y="390" width="100" height="90" as="geometry" />
        </mxCell>
        <mxCell id="CI7hVYK2IcQJahsfxzS0-73" style="edgeStyle=orthogonalEdgeStyle;rounded=0;orthogonalLoop=1;jettySize=auto;html=1;exitX=0.5;exitY=1;exitDx=0;exitDy=0;entryX=0.5;entryY=0;entryDx=0;entryDy=0;fontFamily=Helvetica;fontSize=16;fontColor=default;startSize=23;" parent="CI7hVYK2IcQJahsfxzS0-17" source="CI7hVYK2IcQJahsfxzS0-53" target="CI7hVYK2IcQJahsfxzS0-66" edge="1">
          <mxGeometry relative="1" as="geometry" />
        </mxCell>
        <mxCell id="CI7hVYK2IcQJahsfxzS0-53" value="&lt;font style=&quot;font-size: 16px;&quot;&gt;filtration depend on the score of the rate of order accepted and the speed of order acceptance&lt;br style=&quot;font-size: 16px;&quot;&gt;&amp;nbsp;by Fazaa&lt;/font&gt;" style="whiteSpace=wrap;html=1;rounded=1;strokeColor=#9673a6;fontFamily=Helvetica;fontSize=16;fontColor=default;startSize=23;fillColor=#FFFFFF;" parent="CI7hVYK2IcQJahsfxzS0-17" vertex="1">
          <mxGeometry x="10" y="510" width="180" height="110" as="geometry" />
        </mxCell>
        <mxCell id="CI7hVYK2IcQJahsfxzS0-60" style="edgeStyle=orthogonalEdgeStyle;rounded=0;orthogonalLoop=1;jettySize=auto;html=1;exitX=0.5;exitY=1;exitDx=0;exitDy=0;entryX=0.5;entryY=0;entryDx=0;entryDy=0;fontFamily=Helvetica;fontSize=16;fontColor=default;startSize=23;" parent="CI7hVYK2IcQJahsfxzS0-17" source="CI7hVYK2IcQJahsfxzS0-55" target="CI7hVYK2IcQJahsfxzS0-59" edge="1">
          <mxGeometry relative="1" as="geometry" />
        </mxCell>
        <mxCell id="CI7hVYK2IcQJahsfxzS0-55" value="&lt;font style=&quot;font-size: 16px;&quot;&gt;looking for fazaa&amp;nbsp;bigger then 1km&amp;nbsp;also dosen&#39;t have order now in the system&lt;/font&gt;" style="whiteSpace=wrap;html=1;rounded=1;strokeColor=#9673a6;fontFamily=Helvetica;fontSize=16;fontColor=default;startSize=23;fillColor=#FFFFFF;" parent="CI7hVYK2IcQJahsfxzS0-17" vertex="1">
          <mxGeometry x="225" y="470" width="155" height="99" as="geometry" />
        </mxCell>
        <mxCell id="CI7hVYK2IcQJahsfxzS0-61" style="edgeStyle=orthogonalEdgeStyle;rounded=0;orthogonalLoop=1;jettySize=auto;html=1;fontFamily=Helvetica;fontSize=16;fontColor=default;startSize=23;entryX=1;entryY=0.5;entryDx=0;entryDy=0;" parent="CI7hVYK2IcQJahsfxzS0-17" source="CI7hVYK2IcQJahsfxzS0-59" target="CI7hVYK2IcQJahsfxzS0-53" edge="1">
          <mxGeometry relative="1" as="geometry">
            <mxPoint x="180" y="540" as="targetPoint" />
          </mxGeometry>
        </mxCell>
        <mxCell id="CI7hVYK2IcQJahsfxzS0-74" value="Yes" style="edgeLabel;html=1;align=center;verticalAlign=middle;resizable=0;points=[];fontSize=16;fontFamily=Helvetica;fontColor=default;" parent="CI7hVYK2IcQJahsfxzS0-61" vertex="1" connectable="0">
          <mxGeometry x="-0.3187" y="2" relative="1" as="geometry">
            <mxPoint as="offset" />
          </mxGeometry>
        </mxCell>
        <mxCell id="CI7hVYK2IcQJahsfxzS0-62" style="edgeStyle=orthogonalEdgeStyle;rounded=0;orthogonalLoop=1;jettySize=auto;html=1;exitX=1;exitY=0.5;exitDx=0;exitDy=0;fontFamily=Helvetica;fontSize=16;fontColor=default;startSize=23;entryX=1;entryY=0.5;entryDx=0;entryDy=0;" parent="CI7hVYK2IcQJahsfxzS0-17" source="CI7hVYK2IcQJahsfxzS0-59" target="CI7hVYK2IcQJahsfxzS0-55" edge="1">
          <mxGeometry relative="1" as="geometry">
            <mxPoint x="390" y="540" as="targetPoint" />
            <Array as="points">
              <mxPoint x="390" y="650" />
              <mxPoint x="390" y="520" />
            </Array>
          </mxGeometry>
        </mxCell>
        <mxCell id="CI7hVYK2IcQJahsfxzS0-75" value="No" style="edgeLabel;html=1;align=center;verticalAlign=middle;resizable=0;points=[];fontSize=16;fontFamily=Helvetica;fontColor=default;" parent="CI7hVYK2IcQJahsfxzS0-62" vertex="1" connectable="0">
          <mxGeometry x="-0.0473" y="2" relative="1" as="geometry">
            <mxPoint as="offset" />
          </mxGeometry>
        </mxCell>
        <mxCell id="CI7hVYK2IcQJahsfxzS0-59" value="&lt;font style=&quot;font-size: 16px;&quot;&gt;&lt;b style=&quot;font-size: 16px;&quot;&gt;their is fazaa in this area&lt;/b&gt;&lt;/font&gt;" style="rhombus;whiteSpace=wrap;html=1;rounded=1;strokeColor=#000000;fontFamily=Helvetica;fontSize=16;fontColor=default;startSize=23;fillColor=#FFFFFF;" parent="CI7hVYK2IcQJahsfxzS0-17" vertex="1">
          <mxGeometry x="250" y="605" width="100" height="90" as="geometry" />
        </mxCell>
        <mxCell id="CI7hVYK2IcQJahsfxzS0-66" value="&lt;font style=&quot;font-size: 16px;&quot;&gt;assign to fazaa by the criteria acceptance order rate , acceptance speed rate&amp;nbsp;&lt;/font&gt;" style="rounded=1;whiteSpace=wrap;html=1;strokeColor=#9673a6;fontFamily=Helvetica;fontSize=16;fontColor=default;startSize=23;fillColor=#FFFFFF;" parent="CI7hVYK2IcQJahsfxzS0-17" vertex="1">
          <mxGeometry y="660" width="200" height="90" as="geometry" />
        </mxCell>
        <mxCell id="CI7hVYK2IcQJahsfxzS0-85" value="assign to new fazza" style="whiteSpace=wrap;html=1;rounded=1;strokeColor=#9673a6;fontFamily=Helvetica;fontSize=16;fontColor=default;startSize=23;fillColor=#FFFFFF;" parent="CI7hVYK2IcQJahsfxzS0-17" vertex="1">
          <mxGeometry x="10" y="790" width="120" height="60" as="geometry" />
        </mxCell>
        <mxCell id="nJ96h0wH1N9FHe8dLCJm-27" value="" style="line;strokeWidth=4;html=1;perimeter=backbonePerimeter;points=[];outlineConnect=0;rounded=1;strokeColor=#000000;fontFamily=Helvetica;fontSize=16;fontColor=default;startSize=23;fillColor=#000000;" parent="CI7hVYK2IcQJahsfxzS0-17" vertex="1">
          <mxGeometry x="110" y="1399" width="125" height="11" as="geometry" />
        </mxCell>
        <mxCell id="hN3WlbYqaHNAYtSV8zpS-7" value="" style="line;strokeWidth=4;html=1;perimeter=backbonePerimeter;points=[];outlineConnect=0;rounded=1;strokeColor=#000000;fontFamily=Helvetica;fontSize=16;fontColor=default;startSize=23;fillColor=#000000;flipH=0;flipV=1;direction=south;" parent="CI7hVYK2IcQJahsfxzS0-17" vertex="1">
          <mxGeometry x="340" y="690" width="20" height="110" as="geometry" />
        </mxCell>
        <mxCell id="CI7hVYK2IcQJahsfxzS0-70" style="edgeStyle=orthogonalEdgeStyle;rounded=0;orthogonalLoop=1;jettySize=auto;html=1;exitX=1;exitY=0.5;exitDx=0;exitDy=0;fontFamily=Helvetica;fontSize=16;fontColor=default;startSize=23;" parent="CI7hVYK2IcQJahsfxzS0-17" source="CI7hVYK2IcQJahsfxzS0-66" target="hN3WlbYqaHNAYtSV8zpS-7" edge="1">
          <mxGeometry relative="1" as="geometry">
            <mxPoint x="330" y="710" as="targetPoint" />
            <Array as="points">
              <mxPoint x="310" y="710" />
              <mxPoint x="310" y="710" />
            </Array>
          </mxGeometry>
        </mxCell>
        <mxCell id="CI7hVYK2IcQJahsfxzS0-95" style="edgeStyle=orthogonalEdgeStyle;rounded=0;orthogonalLoop=1;jettySize=auto;html=1;exitX=1;exitY=0.25;exitDx=0;exitDy=0;fontFamily=Helvetica;fontSize=16;fontColor=default;startSize=23;" parent="CI7hVYK2IcQJahsfxzS0-17" source="CI7hVYK2IcQJahsfxzS0-85" target="hN3WlbYqaHNAYtSV8zpS-7" edge="1">
          <mxGeometry relative="1" as="geometry">
            <mxPoint x="340" y="741" as="targetPoint" />
            <Array as="points">
              <mxPoint x="130" y="790" />
            </Array>
          </mxGeometry>
        </mxCell>
        <mxCell id="hN3WlbYqaHNAYtSV8zpS-14" value="" style="ellipse;html=1;shape=endState;fillColor=#000000;strokeColor=#000000;fontSize=16;" parent="CI7hVYK2IcQJahsfxzS0-17" vertex="1">
          <mxGeometry x="157.5" y="1429" width="30" height="30" as="geometry" />
        </mxCell>
        <mxCell id="hN3WlbYqaHNAYtSV8zpS-15" value="" style="edgeStyle=orthogonalEdgeStyle;rounded=0;orthogonalLoop=1;jettySize=auto;html=1;fontSize=16;" parent="CI7hVYK2IcQJahsfxzS0-17" source="nJ96h0wH1N9FHe8dLCJm-27" target="hN3WlbYqaHNAYtSV8zpS-14" edge="1">
          <mxGeometry relative="1" as="geometry" />
        </mxCell>
        <mxCell id="CI7hVYK2IcQJahsfxzS0-26" value="&lt;span style=&quot;font-size: 16px;&quot;&gt;fazaa&lt;/span&gt;" style="swimlane;whiteSpace=wrap;html=1;fillColor=#7EA6E0;strokeColor=#9673a6;startSize=23;fontSize=16;" parent="1" vertex="1">
          <mxGeometry x="750" y="-59" width="510" height="1469" as="geometry">
            <mxRectangle x="600" y="60" width="90" height="40" as="alternateBounds" />
          </mxGeometry>
        </mxCell>
        <mxCell id="XacS5YI0zgEQF_F0l5FU-6" value="" style="edgeStyle=orthogonalEdgeStyle;rounded=0;orthogonalLoop=1;jettySize=auto;html=1;fontSize=16;" parent="CI7hVYK2IcQJahsfxzS0-26" source="CI7hVYK2IcQJahsfxzS0-71" target="CI7hVYK2IcQJahsfxzS0-77" edge="1">
          <mxGeometry relative="1" as="geometry">
            <Array as="points">
              <mxPoint x="130" y="779" />
              <mxPoint x="130" y="779" />
            </Array>
          </mxGeometry>
        </mxCell>
        <mxCell id="CI7hVYK2IcQJahsfxzS0-71" value="&lt;font style=&quot;font-size: 16px;&quot;&gt;fazaa can see pop up in the app and he can accept with 10 second type of serves , how many km from the customer , price&amp;nbsp;&lt;/font&gt;" style="rounded=1;whiteSpace=wrap;html=1;strokeColor=#9673a6;fontFamily=Helvetica;fontSize=16;fontColor=default;startSize=23;fillColor=#FFFFFF;" parent="CI7hVYK2IcQJahsfxzS0-26" vertex="1">
          <mxGeometry x="40" y="650" width="260" height="89" as="geometry" />
        </mxCell>
        <mxCell id="nJ96h0wH1N9FHe8dLCJm-1" style="edgeStyle=orthogonalEdgeStyle;rounded=0;orthogonalLoop=1;jettySize=auto;html=1;exitX=1;exitY=0.5;exitDx=0;exitDy=0;entryX=0.439;entryY=-0.072;entryDx=0;entryDy=0;entryPerimeter=0;fontSize=16;" parent="CI7hVYK2IcQJahsfxzS0-26" source="CI7hVYK2IcQJahsfxzS0-77" target="CI7hVYK2IcQJahsfxzS0-96" edge="1">
          <mxGeometry relative="1" as="geometry">
            <mxPoint x="283" y="892" as="targetPoint" />
            <Array as="points">
              <mxPoint x="185" y="829" />
              <mxPoint x="283" y="829" />
            </Array>
          </mxGeometry>
        </mxCell>
        <mxCell id="nJ96h0wH1N9FHe8dLCJm-2" value="Yes" style="edgeLabel;html=1;align=center;verticalAlign=middle;resizable=0;points=[];fontSize=16;" parent="nJ96h0wH1N9FHe8dLCJm-1" vertex="1" connectable="0">
          <mxGeometry x="-0.1935" y="-1" relative="1" as="geometry">
            <mxPoint as="offset" />
          </mxGeometry>
        </mxCell>
        <mxCell id="CI7hVYK2IcQJahsfxzS0-77" value="&lt;font style=&quot;font-size: 16px;&quot;&gt;&lt;b style=&quot;font-size: 16px;&quot;&gt;accept the order&lt;/b&gt;&lt;/font&gt;" style="rhombus;whiteSpace=wrap;html=1;rounded=1;strokeColor=#000000;fontFamily=Helvetica;fontSize=16;fontColor=default;startSize=23;fillColor=#FFFFFF;" parent="CI7hVYK2IcQJahsfxzS0-26" vertex="1">
          <mxGeometry x="75" y="829" width="110" height="90" as="geometry" />
        </mxCell>
        <mxCell id="hN3WlbYqaHNAYtSV8zpS-4" style="edgeStyle=orthogonalEdgeStyle;rounded=0;orthogonalLoop=1;jettySize=auto;html=1;exitX=0.5;exitY=1;exitDx=0;exitDy=0;fontSize=16;" parent="CI7hVYK2IcQJahsfxzS0-26" source="CI7hVYK2IcQJahsfxzS0-96" target="hN3WlbYqaHNAYtSV8zpS-3" edge="1">
          <mxGeometry relative="1" as="geometry" />
        </mxCell>
        <mxCell id="CI7hVYK2IcQJahsfxzS0-96" value="&lt;font style=&quot;font-size: 16px;&quot;&gt;the fazza can see customer lociton&amp;nbsp;&lt;/font&gt;" style="whiteSpace=wrap;html=1;rounded=1;strokeColor=#000000;fontFamily=Helvetica;fontSize=16;fontColor=default;startSize=23;fillColor=#FFFFFF;" parent="CI7hVYK2IcQJahsfxzS0-26" vertex="1">
          <mxGeometry x="220" y="879" width="140" height="51" as="geometry" />
        </mxCell>
        <mxCell id="nJ96h0wH1N9FHe8dLCJm-7" style="edgeStyle=orthogonalEdgeStyle;rounded=0;orthogonalLoop=1;jettySize=auto;html=1;exitX=0.5;exitY=1;exitDx=0;exitDy=0;fontSize=16;" parent="CI7hVYK2IcQJahsfxzS0-26" source="CI7hVYK2IcQJahsfxzS0-123" target="CI7hVYK2IcQJahsfxzS0-122" edge="1">
          <mxGeometry relative="1" as="geometry">
            <Array as="points">
              <mxPoint x="290" y="1109" />
              <mxPoint x="133" y="1109" />
            </Array>
          </mxGeometry>
        </mxCell>
        <mxCell id="CI7hVYK2IcQJahsfxzS0-123" value="&lt;font style=&quot;font-size: 16px;&quot;&gt;fazza arreved to the custemor&amp;nbsp;&lt;/font&gt;" style="whiteSpace=wrap;html=1;fillColor=#FFFFFF;strokeColor=#000000;rounded=1;startSize=23;fontSize=16;" parent="CI7hVYK2IcQJahsfxzS0-26" vertex="1">
          <mxGeometry x="230" y="1039" width="120" height="60" as="geometry" />
        </mxCell>
        <mxCell id="nJ96h0wH1N9FHe8dLCJm-20" value="" style="edgeStyle=orthogonalEdgeStyle;rounded=0;orthogonalLoop=1;jettySize=auto;html=1;fontSize=16;" parent="CI7hVYK2IcQJahsfxzS0-26" source="CI7hVYK2IcQJahsfxzS0-122" target="nJ96h0wH1N9FHe8dLCJm-13" edge="1">
          <mxGeometry relative="1" as="geometry" />
        </mxCell>
        <mxCell id="CI7hVYK2IcQJahsfxzS0-122" value="" style="line;strokeWidth=4;html=1;perimeter=backbonePerimeter;points=[];outlineConnect=0;rounded=1;strokeColor=#000000;fontFamily=Helvetica;fontSize=16;fontColor=default;startSize=23;fillColor=#000000;" parent="CI7hVYK2IcQJahsfxzS0-26" vertex="1">
          <mxGeometry x="70" y="1119" width="125" height="11" as="geometry" />
        </mxCell>
        <mxCell id="nJ96h0wH1N9FHe8dLCJm-19" value="" style="edgeStyle=orthogonalEdgeStyle;rounded=0;orthogonalLoop=1;jettySize=auto;html=1;fontSize=16;" parent="CI7hVYK2IcQJahsfxzS0-26" source="nJ96h0wH1N9FHe8dLCJm-13" target="nJ96h0wH1N9FHe8dLCJm-18" edge="1">
          <mxGeometry relative="1" as="geometry" />
        </mxCell>
        <mxCell id="nJ96h0wH1N9FHe8dLCJm-13" value="fazza do the service" style="rounded=1;whiteSpace=wrap;html=1;fontSize=16;" parent="CI7hVYK2IcQJahsfxzS0-26" vertex="1">
          <mxGeometry x="72.5" y="1149" width="120" height="60" as="geometry" />
        </mxCell>
        <mxCell id="nJ96h0wH1N9FHe8dLCJm-18" value="fazza finish the service" style="rounded=1;whiteSpace=wrap;html=1;fontSize=16;" parent="CI7hVYK2IcQJahsfxzS0-26" vertex="1">
          <mxGeometry x="72.5" y="1229" width="120" height="60" as="geometry" />
        </mxCell>
        <mxCell id="nJ96h0wH1N9FHe8dLCJm-21" value="fazza rate the customer&amp;nbsp;" style="whiteSpace=wrap;html=1;rounded=1;fontSize=16;arcSize=27;" parent="CI7hVYK2IcQJahsfxzS0-26" vertex="1">
          <mxGeometry x="70" y="1369" width="120" height="60" as="geometry" />
        </mxCell>
        <mxCell id="hEqA7EipgTIoBZkboldh-3" value="" style="edgeStyle=orthogonalEdgeStyle;rounded=0;orthogonalLoop=1;jettySize=auto;html=1;" edge="1" parent="CI7hVYK2IcQJahsfxzS0-26" source="nJ96h0wH1N9FHe8dLCJm-30" target="nJ96h0wH1N9FHe8dLCJm-21">
          <mxGeometry relative="1" as="geometry" />
        </mxCell>
        <mxCell id="nJ96h0wH1N9FHe8dLCJm-30" value="" style="line;strokeWidth=4;html=1;perimeter=backbonePerimeter;points=[];outlineConnect=0;rounded=1;strokeColor=#000000;fontFamily=Helvetica;fontSize=16;fontColor=default;startSize=23;fillColor=#000000;" parent="CI7hVYK2IcQJahsfxzS0-26" vertex="1">
          <mxGeometry x="70" y="1319" width="125" height="11" as="geometry" />
        </mxCell>
        <mxCell id="nJ96h0wH1N9FHe8dLCJm-31" style="edgeStyle=orthogonalEdgeStyle;rounded=0;orthogonalLoop=1;jettySize=auto;html=1;exitX=0.5;exitY=1;exitDx=0;exitDy=0;fontSize=16;" parent="CI7hVYK2IcQJahsfxzS0-26" source="nJ96h0wH1N9FHe8dLCJm-18" target="nJ96h0wH1N9FHe8dLCJm-30" edge="1">
          <mxGeometry relative="1" as="geometry" />
        </mxCell>
        <mxCell id="hN3WlbYqaHNAYtSV8zpS-5" value="" style="edgeStyle=orthogonalEdgeStyle;rounded=0;orthogonalLoop=1;jettySize=auto;html=1;fontSize=16;" parent="CI7hVYK2IcQJahsfxzS0-26" source="hN3WlbYqaHNAYtSV8zpS-3" target="CI7hVYK2IcQJahsfxzS0-123" edge="1">
          <mxGeometry relative="1" as="geometry" />
        </mxCell>
        <mxCell id="hN3WlbYqaHNAYtSV8zpS-3" value="" style="line;strokeWidth=4;html=1;perimeter=backbonePerimeter;points=[];outlineConnect=0;rounded=1;strokeColor=#000000;fontFamily=Helvetica;fontSize=16;fontColor=default;startSize=23;fillColor=#000000;" parent="CI7hVYK2IcQJahsfxzS0-26" vertex="1">
          <mxGeometry x="227.5" y="949" width="125" height="11" as="geometry" />
        </mxCell>
        <mxCell id="CI7hVYK2IcQJahsfxzS0-37" style="edgeStyle=orthogonalEdgeStyle;rounded=0;orthogonalLoop=1;jettySize=auto;html=1;exitX=0.5;exitY=1;exitDx=0;exitDy=0;fontFamily=Helvetica;fontSize=16;fontColor=default;startSize=23;entryX=0;entryY=0.5;entryDx=0;entryDy=0;" parent="1" source="CI7hVYK2IcQJahsfxzS0-30" target="CI7hVYK2IcQJahsfxzS0-35" edge="1">
          <mxGeometry relative="1" as="geometry">
            <mxPoint x="350" y="370" as="targetPoint" />
            <Array as="points">
              <mxPoint x="-20" y="171" />
            </Array>
          </mxGeometry>
        </mxCell>
        <mxCell id="CI7hVYK2IcQJahsfxzS0-86" style="edgeStyle=orthogonalEdgeStyle;rounded=0;orthogonalLoop=1;jettySize=auto;html=1;exitX=0;exitY=0.5;exitDx=0;exitDy=0;entryX=1.033;entryY=0.594;entryDx=0;entryDy=0;entryPerimeter=0;fontFamily=Helvetica;fontSize=16;fontColor=default;startSize=23;" parent="1" source="CI7hVYK2IcQJahsfxzS0-77" target="CI7hVYK2IcQJahsfxzS0-85" edge="1">
          <mxGeometry relative="1" as="geometry">
            <Array as="points">
              <mxPoint x="780" y="766" />
            </Array>
          </mxGeometry>
        </mxCell>
        <mxCell id="CI7hVYK2IcQJahsfxzS0-87" value="No" style="edgeLabel;html=1;align=center;verticalAlign=middle;resizable=0;points=[];fontSize=16;fontFamily=Helvetica;fontColor=default;" parent="CI7hVYK2IcQJahsfxzS0-86" vertex="1" connectable="0">
          <mxGeometry x="-0.7184" y="1" relative="1" as="geometry">
            <mxPoint as="offset" />
          </mxGeometry>
        </mxCell>
        <mxCell id="nJ96h0wH1N9FHe8dLCJm-16" style="edgeStyle=orthogonalEdgeStyle;rounded=0;orthogonalLoop=1;jettySize=auto;html=1;exitX=1;exitY=0.5;exitDx=0;exitDy=0;fontSize=16;" parent="1" source="CI7hVYK2IcQJahsfxzS0-121" target="CI7hVYK2IcQJahsfxzS0-122" edge="1">
          <mxGeometry relative="1" as="geometry">
            <mxPoint x="830" y="1020" as="targetPoint" />
            <Array as="points">
              <mxPoint x="840" y="1020" />
            </Array>
          </mxGeometry>
        </mxCell>
        <mxCell id="nJ96h0wH1N9FHe8dLCJm-25" style="edgeStyle=orthogonalEdgeStyle;rounded=0;orthogonalLoop=1;jettySize=auto;html=1;exitX=0.5;exitY=1;exitDx=0;exitDy=0;fontSize=16;" parent="1" source="nJ96h0wH1N9FHe8dLCJm-24" target="nJ96h0wH1N9FHe8dLCJm-27" edge="1">
          <mxGeometry relative="1" as="geometry">
            <mxPoint x="480" y="1270" as="targetPoint" />
            <Array as="points">
              <mxPoint x="210" y="1330" />
              <mxPoint x="463" y="1330" />
            </Array>
          </mxGeometry>
        </mxCell>
        <mxCell id="YDYZKEKXzXreT7kuWwNP-1" style="edgeStyle=orthogonalEdgeStyle;rounded=0;orthogonalLoop=1;jettySize=auto;html=1;exitX=0;exitY=0.5;exitDx=0;exitDy=0;fontSize=16;" parent="1" source="nJ96h0wH1N9FHe8dLCJm-21" target="nJ96h0wH1N9FHe8dLCJm-27" edge="1">
          <mxGeometry relative="1" as="geometry">
            <mxPoint x="540" y="1370" as="targetPoint" />
            <Array as="points">
              <mxPoint x="820" y="1330" />
              <mxPoint x="510" y="1330" />
            </Array>
          </mxGeometry>
        </mxCell>
        <mxCell id="YDYZKEKXzXreT7kuWwNP-4" value="&lt;b style=&quot;font-size: 16px;&quot;&gt;&lt;font style=&quot;font-size: 16px;&quot;&gt;fazza Battery and petrol&lt;/font&gt;&lt;/b&gt;" style="text;html=1;align=center;verticalAlign=middle;resizable=0;points=[];autosize=1;strokeColor=none;fillColor=none;fontSize=16;" parent="1" vertex="1">
          <mxGeometry x="420" y="-90" width="200" height="30" as="geometry" />
        </mxCell>
        <mxCell id="hN3WlbYqaHNAYtSV8zpS-6" style="edgeStyle=orthogonalEdgeStyle;rounded=0;orthogonalLoop=1;jettySize=auto;html=1;entryX=1;entryY=0.5;entryDx=0;entryDy=0;fontSize=16;" parent="1" source="hN3WlbYqaHNAYtSV8zpS-3" target="CI7hVYK2IcQJahsfxzS0-100" edge="1">
          <mxGeometry relative="1" as="geometry">
            <mxPoint x="250" y="916" as="targetPoint" />
            <Array as="points">
              <mxPoint x="1010" y="916" />
              <mxPoint x="280" y="916" />
            </Array>
          </mxGeometry>
        </mxCell>
        <mxCell id="XacS5YI0zgEQF_F0l5FU-5" style="edgeStyle=orthogonalEdgeStyle;rounded=0;orthogonalLoop=1;jettySize=auto;html=1;exitX=0;exitY=0;exitDx=140;exitDy=30;exitPerimeter=0;entryX=0;entryY=0.25;entryDx=0;entryDy=0;fontSize=16;" parent="1" source="XacS5YI0zgEQF_F0l5FU-1" target="CI7hVYK2IcQJahsfxzS0-53" edge="1">
          <mxGeometry relative="1" as="geometry">
            <Array as="points">
              <mxPoint x="-180" y="476" />
            </Array>
          </mxGeometry>
        </mxCell>
        <mxCell id="XacS5YI0zgEQF_F0l5FU-1" value="&lt;div style=&quot;font-size: 16px;&quot;&gt;&lt;font style=&quot;font-size: 16px;&quot;&gt;We can add additional criteria&lt;/font&gt;&lt;/div&gt;&lt;div style=&quot;font-size: 16px;&quot;&gt;&lt;font style=&quot;font-size: 16px;&quot;&gt;The number of comments on it compared to the number of requests&lt;/font&gt;&lt;/div&gt;&lt;div style=&quot;font-size: 16px;&quot;&gt;&lt;font style=&quot;font-size: 16px;&quot;&gt;the wating time for fazza when he open the app&lt;/font&gt;&lt;/div&gt;" style="shape=note;whiteSpace=wrap;html=1;backgroundOutline=1;darkOpacity=0.05;fontSize=16;" parent="1" vertex="1">
          <mxGeometry x="-240" y="400" width="140" height="180" as="geometry" />
        </mxCell>
        <mxCell id="XacS5YI0zgEQF_F0l5FU-2" style="edgeStyle=orthogonalEdgeStyle;rounded=0;orthogonalLoop=1;jettySize=auto;html=1;exitX=0.5;exitY=1;exitDx=0;exitDy=0;exitPerimeter=0;entryX=0.429;entryY=-0.004;entryDx=0;entryDy=0;entryPerimeter=0;fontSize=16;" parent="1" source="XacS5YI0zgEQF_F0l5FU-3" target="XacS5YI0zgEQF_F0l5FU-1" edge="1">
          <mxGeometry relative="1" as="geometry" />
        </mxCell>
        <mxCell id="XacS5YI0zgEQF_F0l5FU-3" value="&lt;font style=&quot;font-size: 16px;&quot;&gt;we add in admin side a new page which is notes in all fazza&lt;/font&gt;" style="shape=note;whiteSpace=wrap;html=1;backgroundOutline=1;darkOpacity=0.05;fontSize=16;" parent="1" vertex="1">
          <mxGeometry x="-230" y="210" width="100" height="130" as="geometry" />
        </mxCell>
        <mxCell id="SoS34OW4IH484o4tccU5-2" value="" style="edgeStyle=orthogonalEdgeStyle;rounded=0;orthogonalLoop=1;jettySize=auto;html=1;fontSize=16;" parent="1" source="hN3WlbYqaHNAYtSV8zpS-7" target="CI7hVYK2IcQJahsfxzS0-71" edge="1">
          <mxGeometry relative="1" as="geometry" />
        </mxCell>
      </root>
    </mxGraphModel>
  </diagram>
</mxfile>
